<?xml version="1.0" encoding="UTF-8"?>
<svg id="Layer_1" data-name="Layer 1" xmlns="http://www.w3.org/2000/svg" viewBox="0 0 960 300">
  <defs>
    <style>
      .cls-1 {
        fill: #ed1c24;
      }

      .cls-1, .cls-2 {
        stroke-width: 0px;
      }

      .cls-2 {
        fill: #fff;
      }
    </style>
  </defs>
  <path class="cls-2" d="m93.01,202.1v-75.2c0-21.6,11.2-34.4,32.4-34.4s32.4,12.8,32.4,34.4v14.8h-20.8v-16.2c0-9.2-4.4-13-11-13s-11,3.8-11,13v78.2c0,9.2,4.4,12.8,11,12.8s11-3.6,11-12.8v-21.4h20.8v19.8c0,21.6-11.2,34.4-32.4,34.4s-32.4-12.8-32.4-34.4Z"/>
  <path class="cls-2" d="m171.01,94.5h22v120h36.2v20h-58.2V94.5Z"/>
  <path class="cls-2" d="m237.41,201.3v-73.6c0-22.4,11.8-35.2,33.4-35.2s33.4,12.8,33.4,35.2v73.6c0,22.4-11.8,35.2-33.4,35.2s-33.4-12.8-33.4-35.2Zm44.8,1.4v-76.4c0-10-4.4-13.8-11.4-13.8s-11.4,3.8-11.4,13.8v76.4c0,10,4.4,13.8,11.4,13.8s11.4-3.8,11.4-13.8Z"/>
  <path class="cls-2" d="m335.41,114.5h-23v-20h68v20h-23v120h-22v-120Z"/>
  <path class="cls-2" d="m391.01,94.5h22v57h23.6v-57h22v140h-22v-63h-23.6v63h-22V94.5Z"/>
  <path class="cls-2" d="m475.01,94.5h60v20h-38v37h30.2v20h-30.2v43h38v20h-60V94.5Z"/>
  <path class="cls-2" d="m544.21,201.3v-8h20.8v9.6c0,10,4.4,13.6,11.4,13.6s11.4-3.6,11.4-14c0-11.6-4.4-19-18.8-31.6-18.4-16.2-24.4-27.6-24.4-43.6,0-22,11.4-34.8,32.8-34.8s32,12.8,32,35.2v5.8h-20.8v-7.2c0-10-4-13.8-11-13.8s-11,3.8-11,13.4c0,10.2,4.6,17.6,19,30.2,18.4,16.2,24.2,27.4,24.2,44.8,0,22.8-11.6,35.6-33.2,35.6s-32.4-12.8-32.4-35.2Z"/>
  <path class="cls-1" d="m624.87,73.5h42.38c29.64,0,42.38,13.78,42.38,41.86v11.18c0,18.72-5.98,30.68-18.72,35.88v.52c14.3,4.42,18.98,17.94,18.98,38.48v31.98c0,8.84.26,15.34,3.12,22.1h-29.12c-1.56-4.68-2.6-7.54-2.6-22.36v-33.28c0-16.9-4.94-22.36-17.94-22.36h-9.88v78h-28.6V73.5Zm39,78c10.66,0,17.16-4.68,17.16-19.24v-14.04c0-13-4.42-18.72-14.56-18.72h-13v52h10.4Z"/>
  <path class="cls-2" d="m726.39,201.3v-106.8h22v108.4c0,10,4.2,13.6,11.2,13.6s11.2-3.6,11.2-13.6v-108.4h21.2v106.8c0,22.4-11.2,35.2-32.8,35.2s-32.8-12.8-32.8-35.2Z"/>
  <path class="cls-2" d="m803.79,201.3v-8h20.8v9.6c0,10,4.4,13.6,11.4,13.6s11.4-3.6,11.4-14c0-11.6-4.4-19-18.8-31.6-18.4-16.2-24.4-27.6-24.4-43.6,0-22,11.4-34.8,32.8-34.8s32,12.8,32,35.2v5.8h-20.8v-7.2c0-10-4-13.8-11-13.8s-11,3.8-11,13.4c0,10.2,4.6,17.6,19,30.2,18.4,16.2,24.2,27.4,24.2,44.8,0,22.8-11.6,35.6-33.2,35.6s-32.4-12.8-32.4-35.2Z"/>
</svg>